<mxfile host="app.diagrams.net" modified="2021-02-02T07:52:57.299Z" agent="5.0 (Windows NT 10.0; Win64; x64) AppleWebKit/537.36 (KHTML, like Gecko) Chrome/88.0.4324.104 Safari/537.36" etag="Hb4jQZu-Ftm3YLfx6hTj" version="14.2.9" type="github">
  <diagram id="lYWe8Vf30Z5WRiwAP7xo" name="Page-1">
    <mxGraphModel dx="505" dy="476" grid="1" gridSize="10" guides="1" tooltips="1" connect="1" arrows="1" fold="1" page="1" pageScale="1" pageWidth="827" pageHeight="1169" math="0" shadow="0">
      <root>
        <mxCell id="0" />
        <mxCell id="1" parent="0" />
        <mxCell id="7wdzdmj28vi7l-E2iD2z-1" value="" style="verticalLabelPosition=bottom;verticalAlign=top;html=1;shadow=0;dashed=0;strokeWidth=1;shape=mxgraph.android.phone2;strokeColor=#c0c0c0;" vertex="1" parent="1">
          <mxGeometry x="300" y="180" width="190" height="390" as="geometry" />
        </mxCell>
        <mxCell id="7wdzdmj28vi7l-E2iD2z-4" value="" style="strokeWidth=1;shadow=0;dashed=0;align=center;html=1;shape=mxgraph.mockup.containers.rrect;rSize=0;strokeColor=#666666;fillColor=none;" vertex="1" parent="1">
          <mxGeometry x="307.5" y="220" width="172.5" height="310" as="geometry" />
        </mxCell>
        <mxCell id="7wdzdmj28vi7l-E2iD2z-6" value="" style="strokeColor=inherit;fillColor=inherit;gradientColor=inherit;strokeWidth=1;shadow=0;dashed=0;align=center;html=1;shape=mxgraph.mockup.containers.rrect;rSize=0;fontSize=17;fontColor=#666666;fontStyle=1;resizeWidth=1;" vertex="1" parent="7wdzdmj28vi7l-E2iD2z-4">
          <mxGeometry width="170" height="100" relative="1" as="geometry">
            <mxPoint y="96" as="offset" />
          </mxGeometry>
        </mxCell>
        <mxCell id="7wdzdmj28vi7l-E2iD2z-7" value="Gro 3" style="strokeWidth=1;shadow=0;dashed=0;align=center;html=1;shape=mxgraph.mockup.containers.rrect;rSize=0;fontSize=17;fontColor=#ffffff;fontStyle=1;resizeWidth=1;strokeColor=#333333;fillColor=none;" vertex="1" parent="7wdzdmj28vi7l-E2iD2z-4">
          <mxGeometry width="170" height="110" relative="1" as="geometry">
            <mxPoint y="202" as="offset" />
          </mxGeometry>
        </mxCell>
        <mxCell id="7wdzdmj28vi7l-E2iD2z-2" value="&lt;b&gt;&lt;font style=&quot;font-size: 11px&quot;&gt;Parcheggio stazione Tiburtina&lt;/font&gt;&lt;/b&gt;" style="text;html=1;align=center;verticalAlign=middle;resizable=0;points=[];autosize=1;" vertex="1" parent="7wdzdmj28vi7l-E2iD2z-4">
          <mxGeometry width="170" height="20" as="geometry" />
        </mxCell>
        <mxCell id="7wdzdmj28vi7l-E2iD2z-9" value="&lt;font style=&quot;font-size: 10px&quot;&gt;Tariffa oraria: 1€ l&#39;ora&lt;/font&gt;" style="text;html=1;align=center;verticalAlign=middle;resizable=0;points=[];autosize=1;" vertex="1" parent="7wdzdmj28vi7l-E2iD2z-4">
          <mxGeometry y="20" width="110" height="20" as="geometry" />
        </mxCell>
        <mxCell id="7wdzdmj28vi7l-E2iD2z-10" value="&lt;font style=&quot;font-size: 10px&quot;&gt;Distanza: 1km&amp;nbsp;&lt;/font&gt;" style="text;html=1;align=center;verticalAlign=middle;resizable=0;points=[];autosize=1;" vertex="1" parent="7wdzdmj28vi7l-E2iD2z-4">
          <mxGeometry x="13.378606219557888" y="40" width="80" height="20" as="geometry" />
        </mxCell>
        <mxCell id="7wdzdmj28vi7l-E2iD2z-16" value="&lt;b&gt;&lt;font style=&quot;font-size: 11px&quot;&gt;Parcheggio Via Masaniello,27&lt;/font&gt;&lt;/b&gt;" style="text;html=1;align=center;verticalAlign=middle;resizable=0;points=[];autosize=1;" vertex="1" parent="7wdzdmj28vi7l-E2iD2z-4">
          <mxGeometry y="100" width="170" height="20" as="geometry" />
        </mxCell>
        <mxCell id="7wdzdmj28vi7l-E2iD2z-17" value="&lt;font style=&quot;font-size: 10px&quot;&gt;Tariffa oraria: 0,50€ l&#39;ora&lt;/font&gt;" style="text;html=1;align=center;verticalAlign=middle;resizable=0;points=[];autosize=1;" vertex="1" parent="7wdzdmj28vi7l-E2iD2z-4">
          <mxGeometry y="120" width="120" height="20" as="geometry" />
        </mxCell>
        <mxCell id="7wdzdmj28vi7l-E2iD2z-18" value="&lt;font style=&quot;font-size: 10px&quot;&gt;Tariffa oraria: 1€ l&#39;ora&lt;/font&gt;" style="text;html=1;align=center;verticalAlign=middle;resizable=0;points=[];autosize=1;" vertex="1" parent="7wdzdmj28vi7l-E2iD2z-4">
          <mxGeometry x="-2.066122143124766" y="230" width="110" height="20" as="geometry" />
        </mxCell>
        <mxCell id="7wdzdmj28vi7l-E2iD2z-19" value="&lt;b&gt;&lt;font style=&quot;font-size: 10px&quot;&gt;Parcheggio Via Guido Mazzoni,30&lt;/font&gt;&lt;/b&gt;" style="text;html=1;align=center;verticalAlign=middle;resizable=0;points=[];autosize=1;" vertex="1" parent="7wdzdmj28vi7l-E2iD2z-4">
          <mxGeometry x="-2.068190333458224" y="210" width="170" height="20" as="geometry" />
        </mxCell>
        <mxCell id="7wdzdmj28vi7l-E2iD2z-22" value="&lt;font style=&quot;font-size: 10px&quot;&gt;Distanza: 1,5 km&lt;/font&gt;" style="text;html=1;align=center;verticalAlign=middle;resizable=0;points=[];autosize=1;" vertex="1" parent="7wdzdmj28vi7l-E2iD2z-4">
          <mxGeometry x="13.378606219557888" y="140" width="90" height="20" as="geometry" />
        </mxCell>
        <mxCell id="7wdzdmj28vi7l-E2iD2z-23" value="&lt;span style=&quot;font-size: 10px&quot;&gt;Distanza: 800 m&lt;/span&gt;" style="text;html=1;align=center;verticalAlign=middle;resizable=0;points=[];autosize=1;" vertex="1" parent="7wdzdmj28vi7l-E2iD2z-4">
          <mxGeometry x="8.593847883102287" y="250" width="90" height="20" as="geometry" />
        </mxCell>
        <mxCell id="7wdzdmj28vi7l-E2iD2z-24" value="" style="strokeWidth=1;shadow=0;dashed=0;align=center;html=1;shape=mxgraph.mockup.buttons.multiButton;mainText=;subText=;strokeColor=#FFB570;fillColor=#FF9933;" vertex="1" parent="7wdzdmj28vi7l-E2iD2z-4">
          <mxGeometry x="98.1097789434245" y="70" width="62.433495691270146" height="20" as="geometry" />
        </mxCell>
        <mxCell id="7wdzdmj28vi7l-E2iD2z-25" value="&lt;font style=&quot;font-size: 12px&quot;&gt;Prenota&lt;/font&gt;" style="strokeWidth=1;shadow=0;dashed=0;align=center;html=1;shape=mxgraph.mockup.anchor;fontSize=16;fontColor=#ffffff;fontStyle=1;whiteSpace=wrap;" vertex="1" parent="7wdzdmj28vi7l-E2iD2z-24">
          <mxGeometry y="3.1999999999999997" width="62.433495691270146" height="12.799999999999999" as="geometry" />
        </mxCell>
        <mxCell id="7wdzdmj28vi7l-E2iD2z-26" value="" style="strokeWidth=1;shadow=0;dashed=0;align=center;html=1;shape=mxgraph.mockup.anchor;fontSize=12;fontColor=#ffffff;fontStyle=1;whiteSpace=wrap;" vertex="1" parent="7wdzdmj28vi7l-E2iD2z-24">
          <mxGeometry y="12" width="62.433495691270146" height="4" as="geometry" />
        </mxCell>
        <mxCell id="7wdzdmj28vi7l-E2iD2z-30" value="" style="strokeWidth=1;shadow=0;dashed=0;align=center;html=1;shape=mxgraph.mockup.buttons.multiButton;mainText=;subText=;fillColor=#B3B3B3;strokeColor=#B3B3B3;" vertex="1" parent="7wdzdmj28vi7l-E2iD2z-4">
          <mxGeometry x="94.988104158861" y="280" width="62.433495691270146" height="20" as="geometry" />
        </mxCell>
        <mxCell id="7wdzdmj28vi7l-E2iD2z-31" value="&lt;font style=&quot;font-size: 12px&quot;&gt;Prenota&lt;/font&gt;" style="strokeWidth=1;shadow=0;dashed=0;align=center;html=1;shape=mxgraph.mockup.anchor;fontSize=16;fontColor=#ffffff;fontStyle=1;whiteSpace=wrap;" vertex="1" parent="7wdzdmj28vi7l-E2iD2z-30">
          <mxGeometry y="3.1999999999999997" width="62.433495691270146" height="12.799999999999999" as="geometry" />
        </mxCell>
        <mxCell id="7wdzdmj28vi7l-E2iD2z-32" value="" style="strokeWidth=1;shadow=0;dashed=0;align=center;html=1;shape=mxgraph.mockup.anchor;fontSize=12;fontColor=#ffffff;fontStyle=1;whiteSpace=wrap;" vertex="1" parent="7wdzdmj28vi7l-E2iD2z-30">
          <mxGeometry y="12" width="62.433495691270146" height="4" as="geometry" />
        </mxCell>
        <mxCell id="7wdzdmj28vi7l-E2iD2z-33" value="" style="strokeWidth=1;shadow=0;dashed=0;align=center;html=1;shape=mxgraph.mockup.buttons.multiButton;mainText=;subText=;fillColor=#B3B3B3;strokeColor=#B3B3B3;" vertex="1" parent="7wdzdmj28vi7l-E2iD2z-4">
          <mxGeometry x="98.59810415886099" y="170" width="62.433495691270146" height="20" as="geometry" />
        </mxCell>
        <mxCell id="7wdzdmj28vi7l-E2iD2z-34" value="&lt;font style=&quot;font-size: 12px&quot;&gt;Prenota&lt;/font&gt;" style="strokeWidth=1;shadow=0;dashed=0;align=center;html=1;shape=mxgraph.mockup.anchor;fontSize=16;fontColor=#ffffff;fontStyle=1;whiteSpace=wrap;" vertex="1" parent="7wdzdmj28vi7l-E2iD2z-33">
          <mxGeometry y="3.1999999999999997" width="62.433495691270146" height="12.799999999999999" as="geometry" />
        </mxCell>
        <mxCell id="7wdzdmj28vi7l-E2iD2z-35" value="" style="strokeWidth=1;shadow=0;dashed=0;align=center;html=1;shape=mxgraph.mockup.anchor;fontSize=12;fontColor=#ffffff;fontStyle=1;whiteSpace=wrap;" vertex="1" parent="7wdzdmj28vi7l-E2iD2z-33">
          <mxGeometry y="12" width="62.433495691270146" height="4" as="geometry" />
        </mxCell>
      </root>
    </mxGraphModel>
  </diagram>
</mxfile>
